<svg width="48" height="48" viewBox="0 0 48 48" fill="none" xmlns="http://www.w3.org/2000/svg">
<path fill-rule="evenodd" clip-rule="evenodd" d="M14.1965 20.918C16.5903 15.0978 22.3166 11 29 11C37.8366 11 45 18.1634 45 27C45 35.8366 37.8366 43 29 43C23.3367 43 18.3606 40.0576 15.5171 35.6182L15.4924 35.6319L15.1758 35.0608C15.0541 34.8524 14.9369 34.641 14.8244 34.4268L4.3418 15.5156L9.58951 12.6068L14.1965 20.918ZM39 27C39 32.5228 34.5228 37 29 37C25.321 37 22.106 35.0133 20.3694 32.0542L20.1315 31.6251C19.4087 30.242 19 28.6687 19 27C19 21.4772 23.4772 17 29 17C34.5228 17 39 21.4772 39 27Z" fill="#FCBAC3"/>
<path fill-rule="evenodd" clip-rule="evenodd" d="M44.998 24C44.998 32.8366 37.8346 40 28.998 40C26.8103 40 24.7251 39.5609 22.8257 38.766L21.3684 41.0983L1.86328 28.9102L5.0428 23.8219L13.9214 29.3699C13.3236 27.6914 12.998 25.8837 12.998 24C12.998 15.1634 20.1615 8 28.998 8C37.8346 8 44.998 15.1634 44.998 24ZM38.998 24C38.998 29.5228 34.5209 34 28.998 34C23.4752 34 18.998 29.5228 18.998 24C18.998 18.4772 23.4752 14 28.998 14C34.5209 14 38.998 18.4772 38.998 24Z" fill="#F1D9DD"/>
<path fill-rule="evenodd" clip-rule="evenodd" d="M13 28H13.0307C13.5469 36.3707 20.4993 43 29 43C37.8366 43 45 35.8366 45 27C45 18.1634 37.8366 11 29 11C25.2162 11 21.7392 12.3134 19 14.5093V5H13V28ZM19 27C19 32.5228 23.4772 37 29 37C34.5228 37 39 32.5228 39 27C39 21.4772 34.5228 17 29 17C23.4772 17 19 21.4772 19 27Z" fill="#F16D7F"/>
</svg>
