<svg width="25" height="24" viewBox="0 0 25 24" fill="none" xmlns="http://www.w3.org/2000/svg">
<path d="M19.0046 9.23856C19.0147 9.38069 19.0147 9.52284 19.0147 9.66497C19.0147 14 15.7374 18.9949 9.74751 18.9949C7.90213 18.9949 6.18787 18.4568 4.74585 17.5228C5.00804 17.5533 5.26012 17.5634 5.5324 17.5634C7.05506 17.5634 8.45675 17.0457 9.57608 16.1624C8.14415 16.132 6.94415 15.1878 6.5307 13.8883C6.7324 13.9187 6.93406 13.9391 7.14585 13.9391C7.43827 13.9391 7.73073 13.8984 8.00298 13.8274C6.51055 13.5228 5.3912 12.203 5.3912 10.6091V10.5685C5.82479 10.8122 6.32903 10.9645 6.86345 10.9847C5.98614 10.3959 5.41137 9.39084 5.41137 8.25378C5.41137 7.64466 5.57269 7.08628 5.85506 6.59897C7.45842 8.58881 9.8685 9.88828 12.571 10.0304C12.5206 9.78678 12.4903 9.533 12.4903 9.27919C12.4903 7.47206 13.9424 6 15.7474 6C16.6852 6 17.5323 6.39594 18.1273 7.03553C18.8634 6.89341 19.5692 6.61928 20.1945 6.24366C19.9524 7.00509 19.4382 7.64469 18.7626 8.05075C19.418 7.97972 20.0533 7.79694 20.6382 7.54316C20.1945 8.19287 19.6399 8.77153 19.0046 9.23856Z" fill="#222222"/>
</svg>
