<svg width="25" height="24" viewBox="0 0 25 24" fill="none" xmlns="http://www.w3.org/2000/svg">
<path d="M12.8292 4C9.64451 4 6.49707 6.1375 6.49707 9.59688C6.49707 11.7969 7.72625 13.0469 8.4712 13.0469C8.7785 13.0469 8.95542 12.1844 8.95542 11.9406C8.95542 11.65 8.21978 11.0312 8.21978 9.82188C8.21978 7.30938 10.1194 5.52813 12.5778 5.52813C14.6916 5.52813 16.256 6.7375 16.256 8.95937C16.256 10.6187 15.5948 13.7312 13.4531 13.7312C12.6802 13.7312 12.019 13.1687 12.019 12.3625C12.019 11.1813 12.8385 10.0375 12.8385 8.81875C12.8385 6.75 9.92386 7.125 9.92386 9.625C9.92386 10.15 9.98905 10.7312 10.2218 11.2094C9.7935 13.0656 8.91817 15.8312 8.91817 17.7437C8.91817 18.3344 9.00198 18.9156 9.05785 19.5063C9.16339 19.625 9.11062 19.6125 9.27203 19.5531C10.8364 17.3969 10.7806 16.975 11.4883 14.1531C11.8701 14.8844 12.8571 15.2781 13.6393 15.2781C16.9358 15.2781 18.4164 12.0438 18.4164 9.12813C18.4164 6.025 15.7531 4 12.8292 4Z" fill="#222222"/>
</svg>
