<svg width="48" height="48" viewBox="0 0 48 48" fill="none" xmlns="http://www.w3.org/2000/svg">
<path d="M37.408 36.5921C38.646 37.8301 38.646 39.8361 37.408 41.0721C36.17 42.3101 34.164 42.3101 32.928 41.0721C31.69 39.8341 31.69 37.8281 32.928 36.5921C34.166 35.3541 36.172 35.3541 37.408 36.5921" stroke="#F16D7F" stroke-width="1.5" stroke-linecap="round" stroke-linejoin="round"/>
<path d="M15.408 36.5918C16.646 37.8298 16.646 39.8358 15.408 41.0718C14.17 42.3098 12.164 42.3098 10.928 41.0718C9.69199 39.8338 9.68999 37.8278 10.928 36.5918C12.166 35.3558 14.17 35.3538 15.408 36.5918" stroke="#F16D7F" stroke-width="1.5" stroke-linecap="round" stroke-linejoin="round"/>
<path d="M20 8H28C29.104 8 30 8.896 30 10V30H4" stroke="#F16D7F" stroke-width="1.5" stroke-linecap="round" stroke-linejoin="round"/>
<path d="M10 38.832H6C4.896 38.832 4 37.936 4 36.832V26" stroke="#F16D7F" stroke-width="1.5" stroke-linecap="round" stroke-linejoin="round"/>
<path d="M30 14H38.646C39.464 14 40.2 14.498 40.502 15.258L43.714 23.286C43.902 23.758 44 24.262 44 24.77V36.666C44 37.77 43.104 38.666 42 38.666H38.338" stroke="#F16D7F" stroke-width="1.5" stroke-linecap="round" stroke-linejoin="round"/>
<path d="M32 38.8398H16.34" stroke="#F16D7F" stroke-width="1.5" stroke-linecap="round" stroke-linejoin="round"/>
<path d="M44 28H36V20H42.4" stroke="#F16D7F" stroke-width="1.5" stroke-linecap="round" stroke-linejoin="round"/>
<path d="M4 8H14" stroke="#F16D7F" stroke-width="1.5" stroke-linecap="round" stroke-linejoin="round"/>
<path d="M4 14H10" stroke="#F16D7F" stroke-width="1.5" stroke-linecap="round" stroke-linejoin="round"/>
<path d="M6 20H4" stroke="#F16D7F" stroke-width="1.5" stroke-linecap="round" stroke-linejoin="round"/>
</svg>
