<svg width="24" height="24" viewBox="0 0 24 24" fill="none" xmlns="http://www.w3.org/2000/svg">
<path d="M11.7714 8.62498C9.65629 8.62498 7.95021 10.3283 7.95021 12.44C7.95021 14.5517 9.65629 16.2551 11.7714 16.2551C13.8866 16.2551 15.5926 14.5517 15.5926 12.44C15.5926 10.3283 13.8866 8.62498 11.7714 8.62498ZM11.7714 14.9203C10.4046 14.9203 9.28713 13.808 9.28713 12.44C9.28713 11.0721 10.4012 9.95975 11.7714 9.95975C13.1416 9.95975 14.2557 11.0721 14.2557 12.44C14.2557 13.808 13.1383 14.9203 11.7714 14.9203ZM16.6402 8.46893C16.6402 8.96365 16.2412 9.35877 15.749 9.35877C15.2534 9.35877 14.8577 8.96033 14.8577 8.46893C14.8577 7.97752 15.2568 7.57908 15.749 7.57908C16.2412 7.57908 16.6402 7.97752 16.6402 8.46893ZM19.1711 9.37205C19.1146 8.18006 18.8419 7.1242 17.9672 6.25428C17.0959 5.38436 16.0383 5.11209 14.8444 5.05233C13.6139 4.9826 9.92567 4.9826 8.69516 5.05233C7.50456 5.10877 6.44699 5.38104 5.57234 6.25096C4.69768 7.12088 4.4283 8.17674 4.36843 9.36873C4.2986 10.5972 4.2986 14.2795 4.36843 15.508C4.42497 16.7 4.69768 17.7558 5.57234 18.6258C6.44699 19.4957 7.50124 19.7679 8.69516 19.8277C9.92567 19.8974 13.6139 19.8974 14.8444 19.8277C16.0383 19.7713 17.0959 19.499 17.9672 18.6258C18.8385 17.7558 19.1112 16.7 19.1711 15.508C19.2409 14.2795 19.2409 10.6006 19.1711 9.37205ZM17.5814 16.8262C17.322 17.4769 16.8198 17.9783 16.1647 18.2406C15.1836 18.6291 12.8556 18.5394 11.7714 18.5394C10.6873 18.5394 8.35594 18.6258 7.37819 18.2406C6.72635 17.9816 6.22417 17.4803 5.96144 16.8262C5.57234 15.8467 5.66213 13.5224 5.66213 12.44C5.66213 11.3576 5.57566 9.03006 5.96144 8.05389C6.22085 7.40311 6.72303 6.90174 7.37819 6.63943C8.35927 6.25096 10.6873 6.34061 11.7714 6.34061C12.8556 6.34061 15.1869 6.25428 16.1647 6.63943C16.8165 6.89842 17.3187 7.39979 17.5814 8.05389C17.9705 9.03338 17.8807 11.3576 17.8807 12.44C17.8807 13.5224 17.9705 15.85 17.5814 16.8262Z" fill="#222222"/>
</svg>
