<svg width="32" height="32" viewBox="0 0 32 32" fill="none" xmlns="http://www.w3.org/2000/svg">
<path fill-rule="evenodd" clip-rule="evenodd" d="M9.87867 18.9947L7.832 9.33337H24.6667C25.5347 9.33337 26.1707 10.148 25.96 10.9907L24.1627 18.18C23.8893 19.272 22.9613 20.0747 21.8413 20.1867L12.7533 21.096C11.3987 21.2307 10.16 20.3254 9.87867 18.9947Z" stroke="white" stroke-width="1.5" stroke-linecap="round" stroke-linejoin="round"/>
<path d="M7.83199 9.33337L6.96532 5.33337H4.66666" stroke="white" stroke-width="1.5" stroke-linecap="round" stroke-linejoin="round"/>
<path d="M22.812 25.6893C22.5427 25.6893 22.324 25.908 22.3267 26.1773C22.3267 26.4466 22.5453 26.6653 22.8147 26.6653C23.084 26.6653 23.3027 26.4466 23.3027 26.1773C23.3013 25.908 23.0827 25.6893 22.812 25.6893" stroke="white" stroke-width="1.5" stroke-linecap="round" stroke-linejoin="round"/>
<path d="M11.596 25.6894C11.3267 25.6894 11.108 25.908 11.1107 26.1774C11.108 26.448 11.328 26.6667 11.5973 26.6667C11.8667 26.6667 12.0853 26.448 12.0853 26.1787C12.0853 25.908 11.8667 25.6894 11.596 25.6894" stroke="white" stroke-width="1.5" stroke-linecap="round" stroke-linejoin="round"/>
</svg>
