<svg width="48" height="48" viewBox="0 0 48 48" fill="none" xmlns="http://www.w3.org/2000/svg">
<path fill-rule="evenodd" clip-rule="evenodd" d="M37.794 12.308L39.524 12.686C41.108 13.032 42.052 14.666 41.56 16.212L41.022 17.9C40.696 18.926 40.996 20.046 41.792 20.772L43.102 21.964C44.3 23.056 44.3 24.944 43.102 26.036L41.792 27.228C40.996 27.952 40.696 29.074 41.022 30.1L41.56 31.788C42.052 33.334 41.108 34.968 39.524 35.314L37.794 35.692C36.742 35.922 35.922 36.742 35.692 37.794L35.314 39.524C34.968 41.108 33.334 42.052 31.788 41.56L30.1 41.022C29.074 40.696 27.954 40.996 27.228 41.792L26.036 43.102C24.944 44.3 23.056 44.3 21.964 43.102L20.772 41.792C20.048 40.996 18.926 40.696 17.9 41.022L16.212 41.56C14.666 42.052 13.032 41.108 12.686 39.524L12.308 37.794C12.078 36.742 11.258 35.922 10.206 35.692L8.476 35.314C6.892 34.968 5.948 33.334 6.44 31.788L6.978 30.1C7.304 29.074 7.004 27.954 6.208 27.228L4.9 26.036C3.702 24.944 3.702 23.056 4.9 21.964L6.21 20.772C7.006 20.048 7.306 18.926 6.98 17.9L6.44 16.212C5.948 14.666 6.892 13.032 8.476 12.686L10.206 12.308C11.258 12.078 12.078 11.258 12.308 10.206L12.686 8.47601C13.032 6.89201 14.666 5.94801 16.212 6.44001L17.9 6.97801C18.926 7.30401 20.046 7.00401 20.772 6.20801L21.964 4.89801C23.056 3.70001 24.944 3.70001 26.036 4.89801L27.228 6.20801C27.952 7.00401 29.074 7.30401 30.1 6.97801L31.788 6.44001C33.334 5.94801 34.968 6.89201 35.314 8.47601L35.692 10.206C35.922 11.258 36.742 12.078 37.794 12.308Z" stroke="#F16D7F" stroke-width="1.5" stroke-linecap="round" stroke-linejoin="round"/>
<path d="M18 30L30 18" stroke="#F16D7F" stroke-width="1.5" stroke-linecap="round" stroke-linejoin="round"/>
<path d="M18.498 18C18.222 18 17.998 18.224 18 18.5C18 18.776 18.224 19 18.5 19C18.776 19 19 18.776 19 18.5C19 18.224 18.776 18 18.498 18" stroke="#F16D7F" stroke-width="1.5" stroke-linecap="round" stroke-linejoin="round"/>
<path d="M29.498 29C29.222 29 28.998 29.224 29 29.5C29 29.776 29.224 30 29.5 30C29.776 30 30 29.776 30 29.5C30 29.224 29.776 29 29.498 29" stroke="#F16D7F" stroke-width="1.5" stroke-linecap="round" stroke-linejoin="round"/>
</svg>
