<svg width="16" height="16" viewBox="0 0 16 16" fill="none" xmlns="http://www.w3.org/2000/svg">
<rect width="16" height="16" rx="8" fill="#F16D7F"/>
<path d="M6.69153 7.148C7.13953 7.052 7.55153 7.004 7.92753 7.004C8.37553 7.004 8.77153 7.07 9.11553 7.202C9.45953 7.334 9.74553 7.516 9.97353 7.748C10.2055 7.98 10.3795 8.254 10.4955 8.57C10.6155 8.886 10.6755 9.23 10.6755 9.602C10.6755 10.058 10.5955 10.47 10.4355 10.838C10.2795 11.206 10.0615 11.522 9.78153 11.786C9.50553 12.046 9.17953 12.246 8.80353 12.386C8.42753 12.526 8.02153 12.596 7.58553 12.596C7.33353 12.596 7.09153 12.57 6.85953 12.518C6.62753 12.47 6.40953 12.404 6.20553 12.32C6.00553 12.236 5.81953 12.14 5.64753 12.032C5.47553 11.924 5.32353 11.81 5.19153 11.69L5.52153 11.234C5.59353 11.13 5.68753 11.078 5.80353 11.078C5.88353 11.078 5.97353 11.11 6.07353 11.174C6.17353 11.234 6.29553 11.302 6.43953 11.378C6.58353 11.454 6.75153 11.524 6.94353 11.588C7.13953 11.648 7.37153 11.678 7.63953 11.678C7.93953 11.678 8.20953 11.63 8.44953 11.534C8.68953 11.438 8.89553 11.302 9.06753 11.126C9.23953 10.946 9.37153 10.732 9.46353 10.484C9.55553 10.236 9.60153 9.958 9.60153 9.65C9.60153 9.382 9.56153 9.14 9.48153 8.924C9.40553 8.708 9.28753 8.524 9.12753 8.372C8.97153 8.22 8.77553 8.102 8.53953 8.018C8.30353 7.934 8.02753 7.892 7.71153 7.892C7.49553 7.892 7.26953 7.91 7.03353 7.946C6.80153 7.982 6.56353 8.04 6.31953 8.12L5.64753 7.922L6.33753 3.902H10.4115V4.37C10.4115 4.522 10.3635 4.648 10.2675 4.748C10.1755 4.844 10.0155 4.892 9.78753 4.892H7.08753L6.69153 7.148Z" fill="white"/>
</svg>
